<?xml version="1.0" encoding="UTF-8"?>
<!-- Created with Inkscape (http://www.inkscape.org/) -->
<svg width="25.924mm" height="43.977mm" version="1.1" viewBox="0 0 25.924 43.977" xmlns="http://www.w3.org/2000/svg" xmlns:cc="http://creativecommons.org/ns#" xmlns:dc="http://purl.org/dc/elements/1.1/" xmlns:rdf="http://www.w3.org/1999/02/22-rdf-syntax-ns#">
 <metadata>
  <rdf:RDF>
   <cc:Work rdf:about="">
    <dc:format>image/svg+xml</dc:format>
    <dc:type rdf:resource="http://purl.org/dc/dcmitype/StillImage"/>
    <dc:title/>
   </cc:Work>
  </rdf:RDF>
 </metadata>
 <g transform="translate(1.4474e-6 -253.02)" fill="#00f">
  <g transform="matrix(0 1 1 0 -178.42 247.42)">
   <path d="m39.017 178.62h8.5608c0.9972 0 1.8 0.8028 1.8 1.8v9.1327l-6.1471 6.1034-6.1466-6.1466 0.13297-9.0895c0.01459-0.99709 0.8028-1.8 1.8-1.8z" stroke="#696969" stroke-width=".4"/>
   <g stroke="#fff" stroke-width=".4">
    <rect x="39.79" y="181.77" width="6.782" height="2.3052" rx="1.2" ry="1.2"/>
    <rect x="39.79" y="184.69" width="6.782" height="2.3052" rx="1.2" ry="1.2"/>
    <rect x="39.79" y="187.39" width="6.782" height="2.3052" rx="1.2" ry="1.2"/>
   </g>
  </g>
  <g transform="rotate(90 -19.126 215.07)">
   <path d="m39.017 178.62h8.5608c0.9972 0 1.8 0.8028 1.8 1.8v9.1327l-6.1471 6.1034-6.1466-6.1466 0.13297-9.0895c0.01459-0.99709 0.8028-1.8 1.8-1.8z" stroke="#696969" stroke-width=".4"/>
   <g stroke="#fff" stroke-width=".4">
    <rect x="39.79" y="181.77" width="6.782" height="2.3052" rx="1.2" ry="1.2"/>
    <rect x="39.79" y="184.69" width="6.782" height="2.3052" rx="1.2" ry="1.2"/>
    <rect x="39.79" y="187.39" width="6.782" height="2.3052" rx="1.2" ry="1.2"/>
   </g>
  </g>
  <g transform="matrix(-1 0 0 1 49.578 74.6)">
   <path d="m39.017 178.62h8.5608c0.9972 0 1.8 0.8028 1.8 1.8v9.1327l-6.1471 6.1034-6.1466-6.1466 0.13297-9.0895c0.01459-0.99709 0.8028-1.8 1.8-1.8z" stroke="#696969" stroke-width=".4"/>
   <g stroke="#fff" stroke-width=".4">
    <rect x="39.79" y="181.77" width="6.782" height="2.3052" rx="1.2" ry="1.2"/>
    <rect x="39.79" y="184.69" width="6.782" height="2.3052" rx="1.2" ry="1.2"/>
    <rect x="39.79" y="187.39" width="6.782" height="2.3052" rx="1.2" ry="1.2"/>
   </g>
  </g>
  <g transform="rotate(180 31.403 224.48)">
   <path d="m39.017 178.62h8.5608c0.9972 0 1.8 0.8028 1.8 1.8v9.1327l-6.1471 6.1034-6.1466-6.1466 0.13297-9.0895c0.01459-0.99709 0.8028-1.8 1.8-1.8z" stroke="#696969" stroke-width=".4"/>
   <g stroke="#fff" stroke-width=".4">
    <rect x="39.79" y="181.77" width="6.782" height="2.3052" rx="1.2" ry="1.2"/>
    <rect x="39.79" y="184.69" width="6.782" height="2.3052" rx="1.2" ry="1.2"/>
    <rect x="39.79" y="187.39" width="6.782" height="2.3052" rx="1.2" ry="1.2"/>
   </g>
  </g>
 </g>
</svg>
