<?xml version="1.0" encoding="UTF-8"?>
<!-- Created with Inkscape (http://www.inkscape.org/) -->
<svg width="199.66mm" height="173.29mm" version="1.1" viewBox="0 0 199.66 173.29" xmlns="http://www.w3.org/2000/svg" xmlns:cc="http://creativecommons.org/ns#" xmlns:dc="http://purl.org/dc/elements/1.1/" xmlns:rdf="http://www.w3.org/1999/02/22-rdf-syntax-ns#">
 <metadata>
  <rdf:RDF>
   <cc:Work rdf:about="">
    <dc:format>image/svg+xml</dc:format>
    <dc:type rdf:resource="http://purl.org/dc/dcmitype/StillImage"/>
    <dc:title/>
   </cc:Work>
  </rdf:RDF>
 </metadata>
 <g transform="translate(-.32569 -122.83)">
  <g fill="#a6a29f" stroke="#000" stroke-width=".4">
   <path d="m5.3862 198.92s-1.2215 5.4008-1.7009 8.1265c-0.57875 3.2904-1.0164 6.6052-1.4174 9.9219-0.4052 3.3516-0.74197 6.7124-0.99833 10.079-0.25405 3.336-0.42327 6.6788-0.53454 10.023-0.11186 3.3616-0.099999 6.7262-0.13363 10.089-0.032965 3.2962-0.099622 6.5927-0.066817 9.889 0.033259 3.3419 0.024673 6.6894 0.26727 10.023 0.24586 3.378 0.43494 6.7906 1.2027 10.089 0.47106 2.0239 1.2006 3.9931 2.0713 5.8799 0.66912 1.4498 1.459 2.8566 2.4054 4.1427 1.0931 1.4855 2.3067 2.9174 3.7418 4.0758 1.7477 1.4109 3.7353 2.5546 5.8131 3.4077 1.2543 0.51497 2.5902 0.9003 3.9422 1.0022 1.8077 0.1363 3.6495-0.11116 5.4122-0.53453 1.6046-0.3854 3.2293-0.9008 4.6104-1.8041 1.608-1.0517 2.8982-2.5577 4.0759-4.0758 1.4749-1.9015 2.6373-4.0428 3.675-6.214 0.93295-1.9522 1.5781-4.031 2.2718-6.0804 1.1046-3.2634 1.8538-6.6423 3.0068-9.889 1.2235-3.4454 2.4466-6.9172 4.1427-10.156 0.81385-1.5543 1.7765-3.0405 2.8731-4.41 1.5949-1.9916 3.3592-3.8773 5.3454-5.479 1.8616-1.5013 3.9173-2.7885 6.0804-3.8086 0.44592-0.2103 1.4032-0.46773 1.4032-0.46773z"/>
   <path d="m194.66 196.46s1.3238 7.0448 1.8899 10.583c0.53271 3.3297 1.0054 6.6696 1.4174 10.016 0.40627 3.3005 0.77215 6.6072 1.0394 9.9219 0.26879 3.3333 0.44091 6.6746 0.56697 10.016 0.12588 3.337 0.15748 6.6771 0.18898 10.016 0.0315 3.3386 0.0472 6.6779 0 10.016-0.0473 3.3398-0.0152 6.687-0.28348 10.016-0.26805 3.3258-0.58731 6.6674-1.3229 9.9219-0.4524 2.0015-1.1054 3.9625-1.8899 5.8586-0.60853 1.4709-1.2603 2.9483-2.1734 4.2522-1.061 1.5153-2.3826 2.8509-3.7798 4.0632-1.3331 1.1567-2.7537 2.2638-4.3467 3.0238-1.8353 0.87567-3.8366 1.4848-5.8586 1.7009-1.35 0.14425-2.7351-2e-3 -4.0632-0.28351-1.4425-0.30628-2.8364-0.85712-4.1577-1.5119-1.4092-0.69827-2.8034-1.4953-3.9688-2.5514-1.4289-1.2949-2.6161-2.8718-3.5908-4.5357-1.8419-3.1444-2.9276-6.6806-4.1577-10.111-1.1569-3.2262-1.8824-6.5957-3.0238-9.8274-1.1862-3.3587-2.3035-6.773-3.9688-9.9219-0.92302-1.7453-2.043-3.3972-3.3073-4.9137-1.1838-1.42-2.5537-2.6845-3.9688-3.8743-1.8133-1.5246-3.7374-2.9311-5.7641-4.1577-0.42178-0.25528-0.96421-0.32322-1.3229-0.66145-0.87266-0.82283-1.7954-3.1183-1.7954-3.1183z"/>
  </g>
  <g stroke="#000" stroke-width=".4">
   <path d="m153.09 164.6c-37.611 0.91472-75.892-0.56434-113.12 0.74805-25.985 1.5524-43.65 34.202-30.914 56.988 8.6027 17.284 29.16 28.294 49.412 19.318 0.31593-0.14002 0.70129-0.40492 0.93817-0.20509 2.5976 2.1913 4.5867 3.5498 7.1957 3.9242 4.893 0.70226 10.227 0.0297 14.677-2.1245 2.6297-1.2733 6.3648-6.0264 6.3648-6.0264s16.115-0.64906 24.799-0.16508c0 0 3.0743 4.226 5.261 5.5236 3.4277 2.034 7.5654 3.0691 11.551 3.0898 3.2694 0.017 4.9173-0.18231 9.7616-2.3676 0.32683-0.14744 0.53539-0.55173 0.8759-0.35945 4.6688 2.6364 19.975 2.0838 29.297-0.66453 22.034-7.9849 33.501-37.147 20.668-57.324-7.441-12.713-22.073-20.763-36.764-20.355z" fill="#dfdbd8"/>
   <path d="m42.897 168.84h114.79l2.2718 0.26727s6.8525 1.5379 10.034 2.9673c2.8262 1.2698 5.4096 3.0572 7.8902 4.9137 0.77695 0.58148 1.5089 1.2298 2.1734 1.9371 2.3577 2.5099 4.6769 5.1326 6.3783 8.1265 1.7515 3.0819 3.0474 6.4639 3.827 9.9219 0.73635 3.2663 0.8926 6.6709 0.75596 10.016-0.0905 2.2145-0.5453 4.4068-1.0394 6.5673-0.26771 1.1705-0.56839 2.3445-1.0394 3.449-1.4966 3.5093-3.3679 6.8914-5.6224 9.9691-0.95479 1.3034-2.0813 2.4911-3.3073 3.5435-3.0527 2.6205-6.3347 5.0782-9.9691 6.8036-3.1602 1.5002-6.6004 2.4835-10.064 2.9766-3.2899 0.46837-9.9691-0.0473-9.9691-0.0473l-4.9137-1.1339-0.56697-0.7087s0.55742-0.90127 0.8032-1.3702c0.69347-1.323 1.4235-2.6442 1.8899-4.0632 0.4214-1.2823 0.69237-2.6236 0.8032-3.9688 0.10999-1.335 0.0633-2.6923-0.14174-4.016-0.2153-1.3896-0.66407-2.7379-1.1339-4.0632-0.4761-1.3429-0.92942-2.7236-1.7009-3.9215-0.83919-1.303-1.9722-2.4057-3.1183-3.449-1.0319-0.93931-2.147-1.8048-3.3545-2.5041-1.4406-0.83427-2.9806-1.5332-4.583-1.9844-1.3014-0.36638-2.6649-0.52038-4.016-0.56697-1.3255-0.0457-2.6666 0.0315-3.9688 0.28348-1.3643 0.26401-2.6997 0.70964-3.9688 1.2757-1.3987 0.62386-2.7585 1.3765-3.9688 2.3151-1.5224 1.1807-2.9446 2.5419-4.0632 4.1105-0.96924 1.359-1.6491 2.9201-2.2206 4.4885-0.47737 1.3099-0.80124 2.6822-0.99219 4.0632-0.18346 1.3269-0.16587 2.6767-0.14174 4.016 8e-3 0.44202 0.0945 1.3229 0.0945 1.3229l-0.51972 0.61422-20.222 0.0945-0.8032-0.56697s0.39706-2.3242 0.37798-3.4963c-0.02201-1.3518-0.23907-2.7044-0.56696-4.016-0.3456-1.3824-0.81738-2.7466-1.4647-4.016-0.74209-1.4554-1.6846-2.8165-2.7403-4.0632-0.81351-0.96066-1.7346-1.8415-2.7403-2.5986-1.2408-0.93408-2.5943-1.7372-4.016-2.3624-1.2815-0.5635-2.6412-0.96472-4.016-1.2284-1.3192-0.25302-2.6745-0.39905-4.016-0.33073-1.3759 0.0701-2.7429 0.36284-4.0632 0.75595-1.3736 0.40895-2.719 0.95221-3.9688 1.6536-1.4257 0.8002-2.7717 1.7685-3.9688 2.8821-1.0556 0.98201-2.0036 2.0973-2.7876 3.3073-0.80813 1.2474-1.4393 2.6156-1.9371 4.016-0.45554 1.2813-0.76257 2.6211-0.94494 3.9688-0.17964 1.3274-0.25934 2.6817-0.14174 4.016 0.11878 1.3477 0.42688 2.6838 0.85044 3.9688 0.46559 1.4124 1.0943 2.778 1.8426 4.0632 0.21557 0.37023 0.75595 1.0394 0.75595 1.0394l-0.47247 0.99218s-3.464 0.97882-5.2444 1.1812c-3.2549 0.36994-6.5866 0.52555-9.8274 0.0473-3.504-0.5171-6.9712-1.5726-10.158-3.1183-3.6359-1.7634-6.9148-4.2522-9.9691-6.8981-1.1371-0.98503-2.178-2.0966-3.0711-3.3073-2.2659-3.0717-4.226-6.4081-5.7169-9.9219-0.55683-1.3124-0.86218-2.721-1.1812-4.1105-0.45422-1.9784-0.96299-3.9719-1.0394-6.0004-0.13585-3.6049 0.17998-7.2687 1.0394-10.772 0.78942-3.2181 2.0787-6.3419 3.7325-9.2132 1.6918-2.9373 3.9509-5.529 6.2366-8.032 0.65371-0.71586 1.3567-1.3946 2.1261-1.9844 2.4591-1.8848 5.0676-3.6359 7.8903-4.9137 3.1772-1.4383 6.582-2.4167 10.016-3.0238 0.94638-0.1673 2.8785-0.16356 2.8785-0.16356z" fill="#d5d0cc"/>
   <ellipse cx="129.4" cy="226" rx="12.2" ry="12.5"/>
   <ellipse cx="70.6" cy="226" rx="12.2" ry="12.5"/>
  </g>
  <g>
   <path transform="scale(.26458)" d="m147.26 668.23c-8.3754-1e-5 -15.119 6.7418-15.119 15.117v25.596h-25.238c-8.3754 0-15.119 6.7437-15.119 15.119v31.191c0 8.3754 6.7437 15.119 15.119 15.119h25.238v25.596c0 8.3754 6.7437 15.119 15.119 15.119h31.906c8.3754 0 15.117-6.7437 15.117-15.119v-25.596h25.598c8.3754 0 15.117-6.7437 15.117-15.119v-31.191c0-8.3754-6.7418-15.119-15.117-15.119h-25.598v-25.596c0-8.3754-6.7418-15.117-15.117-15.117z" fill="#dfdbd8" stroke="#a6a29f" stroke-width="1.5118"/>
   <g fill="#696969">
    <path d="m39.017 178.62h8.5608c0.9972 0 1.8 0.8028 1.8 1.8v9.1327l-6.1471 6.1034-6.1466-6.1466 0.13297-9.0895c0.01459-0.99709 0.8028-1.8 1.8-1.8z" stroke="#696969" stroke-width=".4"/>
    <g stroke="#fff" stroke-width=".4">
     <rect x="39.79" y="181.77" width="6.782" height="2.3052" rx="1.2" ry="1.2"/>
     <rect x="39.79" y="184.69" width="6.782" height="2.3052" rx="1.2" ry="1.2"/>
     <rect x="39.79" y="187.39" width="6.782" height="2.3052" rx="1.2" ry="1.2"/>
    </g>
    <g transform="matrix(1 0 0 -1 0 391.32)">
     <path d="m39.017 178.62h8.5608c0.9972 0 1.8 0.8028 1.8 1.8v9.1327l-6.1471 6.1034-6.1466-6.1466 0.13297-9.0895c0.01459-0.99709 0.8028-1.8 1.8-1.8z" stroke="#696969" stroke-width=".4"/>
     <g stroke="#fff" stroke-width=".4">
      <rect x="39.79" y="181.77" width="6.782" height="2.3052" rx="1.2" ry="1.2"/>
      <rect x="39.79" y="184.69" width="6.782" height="2.3052" rx="1.2" ry="1.2"/>
      <rect x="39.79" y="187.39" width="6.782" height="2.3052" rx="1.2" ry="1.2"/>
     </g>
    </g>
    <g transform="rotate(90 43.231 195.66)">
     <path d="m39.017 178.62h8.5608c0.9972 0 1.8 0.8028 1.8 1.8v9.1327l-6.1471 6.1034-6.1466-6.1466 0.13297-9.0895c0.01459-0.99709 0.8028-1.8 1.8-1.8z" stroke="#696969" stroke-width=".4"/>
     <g stroke="#fff" stroke-width=".4">
      <rect x="39.79" y="181.77" width="6.782" height="2.3052" rx="1.2" ry="1.2"/>
      <rect x="39.79" y="184.69" width="6.782" height="2.3052" rx="1.2" ry="1.2"/>
      <rect x="39.79" y="187.39" width="6.782" height="2.3052" rx="1.2" ry="1.2"/>
     </g>
    </g>
   </g>
   <g transform="matrix(0 1 1 0 -152.47 152.43)">
    <path d="m39.017 178.62h8.5608c0.9972 0 1.8 0.8028 1.8 1.8v9.1327l-6.1471 6.1034-6.1466-6.1466 0.13297-9.0895c0.01459-0.99709 0.8028-1.8 1.8-1.8z" fill="#696969" stroke="#696969" stroke-width=".4"/>
    <g fill="#808080" stroke="#fff" stroke-width=".4">
     <rect x="39.79" y="181.77" width="6.782" height="2.3052" rx="1.2" ry="1.2"/>
     <rect x="39.79" y="184.69" width="6.782" height="2.3052" rx="1.2" ry="1.2"/>
     <rect x="39.79" y="187.39" width="6.782" height="2.3052" rx="1.2" ry="1.2"/>
    </g>
   </g>
  </g>
  <g stroke="#dfdbd8">
   <path transform="scale(.26458)" d="m302.68 710.38c-12.563 0-22.678 10.115-22.678 22.678v6.7871c0 12.563 10.115 22.678 22.678 22.678h118.22c12.563 0 22.678-10.115 22.678-22.678v-6.7871c0-12.563-10.115-22.678-22.678-22.678zm4.9395 11.785h107.62c8.3754 0 15.119 6.7437 15.119 15.119v0.47656c0 8.3754-6.7437 15.119-15.119 15.119h-107.62c-8.3754 0-15.117-6.7437-15.117-15.119v-0.47656c0-8.3754 6.7418-15.119 15.117-15.119z" fill="#a6a29f" stroke-width="1.5118"/>
   <rect x="78.474" y="192.32" width="15.737" height="5.4807" rx="2.7" ry="2.7" fill="#898989" stroke-width=".4"/>
   <rect x="97.681" y="192.32" width="15.737" height="5.4807" rx="2.7" ry="2.7" fill="#898989" stroke-width=".4"/>
  </g>
  <g fill="#191970" stroke="#191970" stroke-width=".26458">
   <g aria-label="X">
    <path d="m144.61 173.88-1.1129-1.6459h0.81063l0.67851 1.039 0.67404-1.039h0.79943l-1.0592 1.5989 1.1353 1.6929h-0.82855l-0.69194-1.1465-0.7345 1.1465h-0.82183z" fill="#191970" stroke="#191970" stroke-width=".26458"/>
   </g>
   <g aria-label="Y ">
    <path d="m125.43 186.27h0.77928l0.81287 1.2562 0.82407-1.2562h0.80391l-1.2719 1.8385v1.4533h-0.69195v-1.4533z" fill="#191970" stroke="#191970" stroke-width=".26458"/>
   </g>
   <g aria-label="B">
    <path d="m168.08 216.26v0.76137h1.0122q0.23513 0 0.34486-0.0918 0.10972-0.0941 0.10972-0.28887 0-0.19706-0.10972-0.28887-0.10973-0.0918-0.34486-0.0918zm1.0234 2.1184q0.23737 0 0.34485-0.0918 0.10749-0.0941 0.10749-0.29335 0-0.20154-0.10973-0.29559-0.10748-0.0941-0.34261-0.0941h-1.0234v0.7748zm0.0963 0.58222h-1.8116v-3.2918h1.6907q0.32022 0 0.51952 0.0358 0.20154 0.0358 0.3247 0.11421 0.18138 0.1142 0.27543 0.29559 0.0963 0.18138 0.0963 0.41203 0 0.27543-0.11868 0.46801-0.11868 0.19035-0.37173 0.32023 0.25529 0.10748 0.37621 0.29111 0.12316 0.18138 0.12316 0.45682 0 0.46129-0.26872 0.68075-0.26871 0.21721-0.83526 0.21721z" fill="#191970" stroke="#191970" stroke-width=".26458"/>
   </g>
   <g aria-label="A">
    <path d="m186.84 202.15-0.48145 1.2674h0.98082zm-0.34038-0.65388h0.7345l1.404 3.2918h-0.77033l-0.3023-0.78376h-1.4309l-0.29335 0.78376h-0.7345z" fill="#191970" stroke="#191970" stroke-width=".26458"/>
   </g>
  </g>
  <g>
   <g>
    <circle cx="138.7" cy="195.8" r="9.3" fill="#dfdbd8" stroke="#a6a29f" stroke-width=".4"/>
    <circle cx="138.7" cy="195.8" r="7.3" fill="#791a52" stroke="#000" stroke-width=".4"/>
   </g>
   <g transform="translate(36.513)">
    <circle cx="138.7" cy="195.8" r="9.3" fill="#dfdbd8" stroke="#a6a29f" stroke-width=".4"/>
    <circle cx="138.7" cy="195.8" r="7.3" fill="#791a52" stroke="#000" stroke-width=".4"/>
   </g>
   <g transform="translate(18.192 -13.988)">
    <circle cx="138.7" cy="195.8" r="9.3" fill="#dfdbd8" stroke="#a6a29f" stroke-width=".4"/>
    <circle cx="138.7" cy="195.8" r="7.3" fill="#791a52" stroke="#000" stroke-width=".4"/>
   </g>
   <g transform="translate(18.192 14.058)">
    <circle cx="138.7" cy="195.8" r="9.3" fill="#dfdbd8" stroke="#a6a29f" stroke-width=".4"/>
    <circle cx="138.7" cy="195.8" r="7.3" fill="#791a52" stroke="#000" stroke-width=".4"/>
   </g>
  </g>
  <g fill="#191970" stroke="#191970">
   <g transform="scale(.93235 1.0726)" stroke-width=".26458" aria-label="TigerDo SN30 pro+">
    <path d="m83.744 169.14v-0.233h0.18464q0.09672 0 0.15826-0.0484 0.06594-0.0484 0.06594-0.2374v-2.352h-0.3517q-0.19783 0-0.27257 0.0835-0.07474 0.0835-0.09232 0.22861l-0.03077 0.27256h-0.29455l0.02198-0.85287h2.7389l0.02198 0.85287h-0.29455l-0.03077-0.27256q-0.01758-0.14508-0.09232-0.22861-0.07474-0.0835-0.27257-0.0835h-0.3517v2.352q0 0.18904 0.06155 0.2374 0.06594 0.0484 0.16266 0.0484h0.18464v0.233z"/>
    <path d="m86.686 166.39q-0.15826 0-0.26817-0.0747-0.10551-0.0791-0.10551-0.2418 0-0.16706 0.10551-0.24179 0.10991-0.0747 0.26817-0.0747 0.15387 0 0.26378 0.0747 0.1143 0.0747 0.1143 0.24179 0 0.16266-0.1143 0.2418-0.10991 0.0747-0.26378 0.0747zm-0.67702 2.7521v-0.233h0.05276q0.06594 0 0.13628-0.0176 0.07474-0.022 0.1231-0.0835 0.05276-0.0615 0.05276-0.18464v-1.3365q0-0.1143-0.05276-0.17146-0.05275-0.0615-0.12749-0.0791-0.07034-0.0176-0.13189-0.0176h-0.05276v-0.23301h1.0331v1.8376q0 0.1231 0.04836 0.18464 0.05276 0.0615 0.1231 0.0835 0.07474 0.0176 0.14068 0.0176h0.05275v0.233z"/>
    <path d="m88.518 170.19q-1.0287 0-1.0287-0.61108 0-0.233 0.15387-0.36049t0.43962-0.14948q-0.1187-0.0483-0.21981-0.14068-0.10111-0.0967-0.10111-0.25058 0-0.14508 0.10991-0.25059 0.10991-0.10991 0.28136-0.21102-0.19344-0.0703-0.32093-0.24179-0.12749-0.17146-0.12749-0.43963 0-0.38687 0.22421-0.59789 0.22421-0.21542 0.69461-0.21542 0.15387 0 0.28576 0.0396 0.13628 0.0396 0.2374 0.0967 0.1143-0.1231 0.21981-0.18465 0.10551-0.0615 0.2374-0.0615 0.15826 0 0.2374 0.0747 0.07913 0.0747 0.07913 0.17585 0 0.10112-0.06594 0.17585-0.06594 0.0747-0.24619 0.0747 0-0.0879-0.05276-0.13628-0.05275-0.0484-0.1143-0.0484-0.08792 0-0.14508 0.0484 0.08792 0.10111 0.14947 0.25058 0.06594 0.14508 0.06594 0.30774 0 0.33412-0.21542 0.55393-0.21542 0.21542-0.67263 0.21542-0.04836 0-0.13189-4e-3 -0.08353-4e-3 -0.1231-9e-3 -0.06155 0.0264-0.10991 0.0879-0.04836 0.0572-0.04836 0.13629 0 0.0747 0.05715 0.1099 0.05715 0.0308 0.14947 0.0308h0.53195q0.43962 0 0.64185 0.18024 0.20223 0.17585 0.20223 0.49238 0 0.40446-0.31213 0.63306-0.31213 0.22861-0.96278 0.22861zm0.09232-2.1454q0.17585 0 0.2374-0.13629 0.06155-0.14068 0.06155-0.37808 0-0.24179-0.06594-0.39126-0.06155-0.15387-0.2374-0.15387-0.17145 0-0.2374 0.15387-0.06594 0.15387-0.06594 0.39566 0 0.22861 0.06594 0.36929 0.07034 0.14068 0.24179 0.14068zm-0.08353 1.8816q0.38687 0 0.56272-0.1099 0.17585-0.10991 0.17585-0.32972 0-0.14068-0.08792-0.19783-0.08792-0.0528-0.26817-0.0528h-0.50997q-0.08792 0-0.18025 0.022-0.08792 0.0264-0.14947 0.0967-0.06155 0.0703-0.06155 0.21542 0 0.35609 0.51876 0.35609z"/>
    <path d="m91.29 169.18q-0.56272 0-0.85287-0.31653-0.28576-0.31653-0.28576-0.89244 0-0.61987 0.28136-0.93201 0.28576-0.31653 0.80891-0.31653 0.47919 0 0.75176 0.26818 0.27696 0.26817 0.27696 0.79132v0.22421h-1.442q0.01319 0.44402 0.16266 0.64625 0.15387 0.19783 0.42644 0.19783 0.22861 0 0.38687-0.10111 0.15826-0.10551 0.233-0.25499 0.1187 0.066 0.1187 0.21542 0 0.18904-0.21102 0.32972t-0.65504 0.14068zm-0.45281-1.4552h0.76055q0-0.33851-0.07913-0.52755t-0.26817-0.18904q-0.18464 0-0.29455 0.18464-0.10991 0.18465-0.1187 0.53195z"/>
    <path d="m92.54 169.14v-0.233h0.01319q0.14947 0 0.24179-0.0528 0.09672-0.0572 0.09672-0.26377v-1.2749q0-0.19343-0.08793-0.24619-0.08353-0.0528-0.2286-0.0528h-0.01319v-0.23301h0.88804l0.08793 0.34291h0.02198q0.08793-0.19783 0.21981-0.29455 0.13189-0.10111 0.40006-0.10111 0.50557 0 0.50557 0.3561 0 0.20222-0.14947 0.31653-0.14508 0.1099-0.40885 0.1099 0-0.18024-0.04836-0.27256-0.04396-0.0923-0.16706-0.0923-0.1143 0-0.18464 0.0791t-0.10551 0.19783q-0.03517 0.1143-0.04836 0.233t-0.01319 0.19344v0.76055q0 0.19343 0.08793 0.24619 0.08792 0.0484 0.21981 0.0484h0.14068v0.233z"/>
    <path d="m94.876 169.14v-0.233h0.18464q0.09672 0 0.15827-0.0484 0.06594-0.0484 0.06594-0.2374v-2.119q0-0.17585-0.06594-0.21981-0.06594-0.0484-0.15827-0.0484h-0.18464v-0.233h1.4508q0.72978 0 1.143 0.38248 0.41325 0.38247 0.41325 1.1298 0 0.48359-0.17585 0.84848-0.17585 0.36489-0.52316 0.57151-0.3473 0.20663-0.85727 0.20663zm1.1035-0.27257h0.24619q0.45282 0 0.68142-0.36049 0.233-0.36489 0.233-0.99356 0-0.62866-0.233-0.9364-0.2286-0.30774-0.67702-0.30774h-0.25059z"/>
    <path d="m99.468 169.18q-0.52755 0-0.83089-0.30334-0.30334-0.30774-0.30334-0.92761t0.29015-0.92321q0.29015-0.30335 0.85727-0.30335 0.52755 0 0.83089 0.30335 0.30334 0.30334 0.30334 0.92321t-0.29455 0.92761q-0.29015 0.30334-0.85287 0.30334zm0.0088-0.27696q0.25498 0 0.3561-0.2418 0.10111-0.24619 0.10111-0.71219 0-0.4704-0.10551-0.7078-0.10111-0.2374-0.3561-0.2374-0.25498 0-0.3561 0.2374t-0.10111 0.7078q0 0.466 0.10111 0.71219 0.10551 0.2418 0.36049 0.2418z"/>
    <g stroke-width=".26458">
     <path d="m103.05 169.18q-0.43083 0-0.65504-0.17145-0.21981-0.17146-0.21981-0.44842 0-0.13189 0.0835-0.21102 0.0835-0.0835 0.233-0.0835 9e-3 0.18464 0.0703 0.34291 0.0616 0.15826 0.18904 0.25938 0.12749 0.0967 0.33411 0.0967 0.29455 0 0.46161-0.14068 0.16706-0.14507 0.16706-0.41324 0-0.16267-0.066-0.27257-0.0615-0.1143-0.21102-0.21102-0.14507-0.0967-0.40445-0.20223-0.40885-0.16706-0.61108-0.38687-0.19783-0.22421-0.19783-0.5891 0-0.25059 0.12309-0.42644 0.12749-0.18024 0.34291-0.27256 0.21981-0.0967 0.49678-0.0967 0.39126 0 0.60668 0.14947t0.21542 0.34291q0 0.14068-0.0967 0.21542-0.0923 0.0703-0.25059 0.0703 0-0.13629-0.0484-0.26378-0.044-0.12749-0.15387-0.21102-0.10551-0.0835-0.29015-0.0835-0.25498 0-0.39566 0.13629-0.14068 0.13628-0.14068 0.36488 0 0.17585 0.0616 0.29895 0.0659 0.1187 0.21541 0.21542 0.14947 0.0923 0.40446 0.19783 0.38687 0.15826 0.60228 0.36489 0.21542 0.20662 0.21542 0.54513 0 0.41765-0.29455 0.65065-0.29015 0.233-0.78693 0.233z"/>
     <path d="m104.53 169.14v-0.18464h0.0572q0.14948 0 0.25499-0.0528 0.10551-0.0571 0.10551-0.26378v-2.1542q0-0.19344-0.10991-0.24619-0.10551-0.0528-0.25059-0.0528h-0.0572v-0.18464h0.80452l1.5739 2.4311v-1.9475q0-0.19344-0.10991-0.24619-0.10551-0.0528-0.25059-0.0528h-0.0572v-0.18464h1.1035v0.18464h-0.0571q-0.14947 0-0.25498 0.0572-0.10551 0.0528-0.10551 0.25937v2.6378h-0.31214l-1.6486-2.5322v2.0311q0 0.20663 0.10551 0.26378 0.10551 0.0528 0.25498 0.0528h0.0571v0.18464z"/>
     <path d="m108.8 169.18q-0.43522 0-0.63306-0.14508-0.19783-0.14947-0.19783-0.3429 0-0.13189 0.0747-0.20663 0.0747-0.0747 0.20223-0.0747 0 0.233 0.14507 0.38247 0.14508 0.14947 0.41325 0.14947 0.17585 0 0.32093-0.0659 0.14947-0.0659 0.24179-0.21981 0.0923-0.15827 0.0923-0.42204 0-0.27697-0.21541-0.44403-0.21102-0.16705-0.58031-0.16705h-0.14068v-0.22421h0.14068q0.19344 0 0.3473-0.0835 0.15827-0.0835 0.25059-0.2374 0.0923-0.15387 0.0923-0.36049 0-0.25499-0.1099-0.40006-0.10551-0.14508-0.3605-0.14508-0.20222 0-0.30773 0.0923-0.10112 0.0923-0.14068 0.2418-0.0352 0.14947-0.0352 0.32092-0.15827 0-0.26818-0.0571-0.1099-0.0616-0.1099-0.2286 0-0.25499 0.21541-0.42204 0.21982-0.16706 0.64625-0.16706 0.41325 0 0.66823 0.18464 0.25499 0.18025 0.25499 0.51436 0 0.19783-0.0923 0.36489-0.0923 0.16266-0.25059 0.28136-0.15827 0.11431-0.36049 0.16266 0.12309 0.0132 0.26377 0.0572 0.14068 0.0396 0.26378 0.12749 0.12749 0.0879 0.20662 0.233 0.0791 0.14068 0.0791 0.36049 0 0.26378-0.10111 0.44842-0.10111 0.18025-0.26817 0.29015-0.16706 0.10551-0.36489 0.15387-0.19344 0.0484-0.38248 0.0484z"/>
     <path d="m111.41 169.18q-0.36049 0-0.58909-0.20223-0.22861-0.20222-0.33852-0.56711-0.10551-0.36489-0.10551-0.85288 0-0.48798 0.10551-0.84848 0.10991-0.36049 0.33852-0.55832 0.2286-0.19783 0.59349-0.19783 0.34291 0 0.56712 0.19783 0.2286 0.19783 0.34291 0.56272 0.1143 0.36049 0.1143 0.84848 0 0.48798-0.1143 0.85287-0.11431 0.3605-0.34291 0.56272-0.22861 0.20223-0.57152 0.20223zm0-0.2374q0.32093 0 0.44403-0.36489 0.12749-0.36489 0.12749-1.0155 0-0.65065-0.12749-1.0111-0.1231-0.36049-0.43963-0.36049-0.32093 0-0.45281 0.36049-0.1275 0.36049-0.1275 1.0111 0 0.65064 0.1275 1.0155 0.12749 0.36489 0.44841 0.36489z"/>
     <path d="m113.85 170.19v-0.18464h0.0352q0.14947 0 0.25499-0.0572 0.10551-0.0528 0.10551-0.25938v-2.4267q0-0.19343-0.10991-0.24619-0.10551-0.0528-0.25059-0.0528h-0.0571v-0.18465h0.76935l0.044 0.39567h0.0176q0.0967-0.20223 0.25499-0.32093 0.15826-0.1187 0.41764-0.1187 0.43523 0 0.66384 0.29455 0.233 0.29015 0.233 0.92322 0 0.63745-0.233 0.932-0.22861 0.29455-0.66384 0.29455-0.25498 0-0.41764-0.10551-0.15827-0.10991-0.25499-0.28136h-0.0176q9e-3 0.12749 0.0132 0.27257 4e-3 0.14068 4e-3 0.22421v0.42204q0 0.19343 0.10551 0.24179 0.10991 0.0528 0.25499 0.0528h0.0132v0.18464zm1.4112-1.2925q0.29015 0 0.41325-0.24179 0.12749-0.24619 0.12749-0.7078 0-0.466-0.12749-0.69901-0.1231-0.233-0.41765-0.233-0.3429 0-0.4704 0.233-0.12749 0.22861-0.12749 0.70341 0 0.45721 0.12749 0.7034 0.1275 0.24179 0.4748 0.24179z"/>
     <path d="m116.61 169.14v-0.18464h0.0132q0.14947 0 0.25498-0.0528 0.10551-0.0571 0.10551-0.26378v-1.3716q0-0.19343-0.10991-0.24619-0.10551-0.0528-0.25058-0.0528h-0.0132v-0.18465h0.67702l0.0835 0.43523h0.022q0.0572-0.13188 0.1231-0.23739 0.0659-0.10991 0.17585-0.17585 0.1099-0.066 0.30334-0.066 0.24179 0 0.35609 0.0835 0.1187 0.0835 0.1187 0.2374 0 0.13628-0.0967 0.22421-0.0923 0.0879-0.31213 0.0879 0-0.18024-0.0528-0.25938-0.0528-0.0835-0.18025-0.0835-0.1231 0-0.20662 0.0967-0.0835 0.0967-0.13189 0.24619-0.0484 0.14948-0.0703 0.31214-0.022 0.15826-0.022 0.28575v0.69022q0 0.19343 0.10551 0.24619 0.1099 0.0484 0.25498 0.0484h0.12309v0.18464z"/>
     <path d="m119.8 169.18q-0.4748 0-0.74737-0.30334-0.27256-0.30334-0.27256-0.92321 0-0.61548 0.25938-0.91443 0.26377-0.30334 0.77374-0.30334 0.47479 0 0.74736 0.30334 0.27257 0.29895 0.27257 0.91443 0 0.61987-0.26378 0.92321-0.26377 0.30334-0.76934 0.30334zm9e-3 -0.2286q0.32972 0 0.46161-0.25059 0.13628-0.25498 0.13628-0.74736 0-0.49239-0.13628-0.73858-0.13629-0.24619-0.46601-0.24619t-0.466 0.24619q-0.13189 0.24619-0.13189 0.73858 0 0.49238 0.13629 0.74736 0.13628 0.25059 0.466 0.25059z"/>
     <path d="m122.16 168.51v-0.8133h-0.80891v-0.25938h0.80891v-0.81331h0.26377v0.81331h0.81331v0.25938h-0.81331v0.8133z"/>
    </g>
   </g>
   <path d="m78.714 184.36h33.923" stroke-width=".665"/>
  </g>
  <g fill="#dfdbd8" stroke="#000" stroke-width=".4">
   <rect x="20.6" y="149.02" width="43.845" height="10.205" rx="5" ry="5"/>
   <path d="m24.379 147.79h29.766s0.94706-0.36608 1.2284-0.75596c0.3219-0.44606 0.33064-1.0583 0.37798-1.6064 0.13849-1.6032-0.06989-3.2243-0.28348-4.8192-0.16235-1.2123-0.46026-2.4039-0.75595-3.5908-0.4121-1.6541-0.79006-3.3286-1.4174-4.9137-0.55989-1.4146-1.1169-2.8846-2.0789-4.0632-1.2752-1.5626-2.8919-2.9381-4.7247-3.7798-2.0098-0.92292-4.3088-1.1913-6.5201-1.2284-1.6569-0.0278-3.3311 0.26432-4.9137 0.75595-1.9373 0.60183-3.9038 1.3695-5.4807 2.6458-1.5181 1.2288-2.6615 2.9123-3.5908 4.6302-0.91941 1.6997-1.3476 3.6259-1.8899 5.4806-0.52741 1.8038-1.0016 3.629-1.3229 5.4807-0.15163 0.87393-0.3684 1.7629-0.28348 2.6458 0.08203 0.8529 0.22346 1.7856 0.75595 2.4568 0.27194 0.34282 1.1339 0.66146 1.1339 0.66146z"/>
   <rect transform="scale(-1,1)" x="-180.86" y="149.02" width="43.845" height="10.205" rx="5" ry="5"/>
   <path d="m177.08 147.79h-29.766s-0.94707-0.36608-1.2284-0.75596c-0.32191-0.44606-0.33064-1.0583-0.37799-1.6064-0.13848-1.6032 0.0699-3.2243 0.28349-4.8192 0.16235-1.2123 0.46026-2.4039 0.75596-3.5908 0.4121-1.6541 0.79006-3.3286 1.4174-4.9137 0.55989-1.4146 1.1169-2.8846 2.0789-4.0632 1.2752-1.5626 2.8919-2.9381 4.7247-3.7798 2.0098-0.92292 4.3088-1.1913 6.5201-1.2284 1.6569-0.0278 3.3312 0.26432 4.9137 0.75595 1.9373 0.60183 3.9039 1.3695 5.4807 2.6458 1.5181 1.2288 2.6615 2.9123 3.5908 4.6302 0.91941 1.6997 1.3476 3.6259 1.8899 5.4806 0.52742 1.8038 1.0016 3.629 1.3229 5.4807 0.15163 0.87393 0.3684 1.7629 0.28348 2.6458-0.082 0.8529-0.22346 1.7856-0.75596 2.4568-0.27194 0.34282-1.1339 0.66146-1.1339 0.66146z"/>
  </g>
  <g fill="#191970" stroke-width=".26458" aria-label="- select - ">
   <path d="m78.344 203.41h1.3036v0.48507h-1.3036z"/>
   <path d="m81.449 204.27h1.1388q0.15158 0 0.2198-0.0474 0.07011-0.0474 0.07011-0.15159 0-0.10421-0.07011-0.15158-0.07011-0.0493-0.2198-0.0493h-0.46612q-0.41496 0-0.56086-0.12696-0.1459-0.12695-0.1459-0.45096 0-0.32969 0.17622-0.48507 0.17622-0.15537 0.5457-0.15537h1.1596v0.42633h-0.95309q-0.23306 0-0.30317 0.0417-0.07011 0.0398-0.07011 0.14401 0 0.0947 0.06063 0.14021 0.06253 0.0436 0.19516 0.0436h0.48886q0.33538 0 0.5116 0.15727 0.17622 0.15538 0.17622 0.45097 0 0.28422-0.15727 0.46233-0.15537 0.17811-0.4017 0.17811h-1.3946z"/>
   <path d="m84.697 204.7q-0.50781 0-0.76929-0.25769-0.25959-0.25959-0.25959-0.76361t0.26148-0.7636q0.26148-0.25959 0.7674-0.25959h0.78824v0.42633h-0.71434q-0.29369 0-0.39601 0.0834-0.10042 0.0834-0.108 0.30127h1.2184v0.42633h-1.2184q0.0076 0.2198 0.10042 0.30128 0.09474 0.0796 0.3998 0.0796h0.71813v0.42633z"/>
   <path d="m86.387 204.7h-0.56276v-2.7854h0.56276z"/>
   <path d="m87.759 204.7q-0.50781 0-0.76929-0.25769-0.25959-0.25959-0.25959-0.76361t0.26148-0.7636q0.26148-0.25959 0.7674-0.25959h0.78824v0.42633h-0.71434q-0.2937 0-0.39601 0.0834-0.10042 0.0834-0.108 0.30127h1.2184v0.42633h-1.2184q0.0076 0.2198 0.10042 0.30128 0.09474 0.0796 0.3998 0.0796h0.71813v0.42633z"/>
   <path d="m90.008 204.26h0.57412v0.4377h-0.73329q-0.27854 0-0.45854-0.0568-0.17811-0.0587-0.31075-0.18759-0.14211-0.14022-0.22359-0.34106-0.07958-0.20275-0.07958-0.42823 0-0.23685 0.07958-0.44149 0.07958-0.20653 0.22359-0.34485 0.13453-0.12885 0.31454-0.18569 0.1819-0.0587 0.45475-0.0587h0.73329v0.44149h-0.57412q-0.38086 0-0.52486 0.13263-0.144 0.13074-0.144 0.45665 0 0.18759 0.05874 0.31075t0.1819 0.19895q0.06063 0.036 0.14022 0.0512 0.08148 0.0152 0.28801 0.0152z"/>
   <path d="m90.738 202.66h0.38086v-0.74087h0.54002v0.74087h0.57034v0.40738h-0.57034v0.82613q0 0.22738 0.07769 0.31644 0.07769 0.0872 0.27096 0.0872h0.22169v0.40738h-0.49265q-0.29938 0-0.45854-0.16485-0.15916-0.16674-0.15916-0.47559v-0.99667h-0.38086z"/>
   <path d="m93.912 203.41h1.3036v0.48507h-1.3036z"/>
  </g>
  <g fill="#191970" stroke-width=".26458" aria-label="- start -">
   <path d="m98.685 203.41h1.3036v0.48507h-1.3036z"/>
   <path d="m101.79 204.27h1.1388q0.15158 0 0.2198-0.0474 0.0701-0.0474 0.0701-0.15159 0-0.10421-0.0701-0.15158-0.0701-0.0493-0.2198-0.0493h-0.46612q-0.41496 0-0.56086-0.12695t-0.1459-0.45096q0-0.3297 0.17621-0.48507 0.17622-0.15537 0.54571-0.15537h1.1596v0.42633h-0.95308q-0.23306 0-0.30317 0.0417-0.0701 0.0398-0.0701 0.14401 0 0.0947 0.0606 0.14021 0.0625 0.0436 0.19516 0.0436h0.48886q0.33538 0 0.5116 0.15727 0.17621 0.15538 0.17621 0.45096 0 0.28422-0.15726 0.46234-0.15538 0.17811-0.4017 0.17811h-1.3946z"/>
   <path d="m103.92 202.66h0.38086v-0.74087h0.54001v0.74087h0.57034v0.40738h-0.57034v0.82613q0 0.22738 0.0777 0.31643 0.0777 0.0872 0.27096 0.0872h0.22169v0.40739h-0.49265q-0.29938 0-0.45854-0.16485-0.15916-0.16674-0.15916-0.4756v-0.99666h-0.38086z"/>
   <path d="m106.49 204.29h0.67645v-0.42255h-0.63666q-0.18948 0-0.26148 0.0512t-0.072 0.17812q0 0.108 0.0568 0.15158 0.0587 0.0417 0.23685 0.0417zm-0.71813-1.6333h1.1066q0.41875 0 0.63097 0.19327 0.21221 0.19137 0.21221 0.57033v1.2809h-1.4514q-0.30507 0-0.46992-0.15348-0.16295-0.15348-0.16295-0.43581 0-0.34864 0.18759-0.50022 0.18948-0.15159 0.62718-0.15159h0.71055v-0.0512q0-0.1819-0.10801-0.2558-0.10611-0.0739-0.38085-0.0739h-0.90193z"/>
   <path d="m108.2 202.66h0.90761q0.31833 0 0.44528 0.11558 0.12885 0.11369 0.12885 0.3998v0.34107h-0.51539v-0.26338q0-0.11937-0.0436-0.15916-0.0417-0.0417-0.19327-0.0417h-0.18948v1.6523h-0.54002z"/>
   <path d="m109.82 202.66h0.38085v-0.74087h0.54002v0.74087h0.57034v0.40738h-0.57034v0.82613q0 0.22738 0.0777 0.31643 0.0777 0.0872 0.27095 0.0872h0.2217v0.40739h-0.49265q-0.29938 0-0.45855-0.16485-0.15916-0.16674-0.15916-0.4756v-0.99666h-0.38085z"/>
   <path d="m112.99 203.41h1.3036v0.48507h-1.3036z"/>
  </g>
 </g>
</svg>
