<?xml version="1.0" encoding="UTF-8"?>
<!-- Created with Inkscape (http://www.inkscape.org/) -->
<svg width="22.7mm" height="22.7mm" version="1.1" viewBox="0 0 22.7 22.7" xmlns="http://www.w3.org/2000/svg" xmlns:cc="http://creativecommons.org/ns#" xmlns:dc="http://purl.org/dc/elements/1.1/" xmlns:rdf="http://www.w3.org/1999/02/22-rdf-syntax-ns#">
 <metadata>
  <rdf:RDF>
   <cc:Work rdf:about="">
    <dc:format>image/svg+xml</dc:format>
    <dc:type rdf:resource="http://purl.org/dc/dcmitype/StillImage"/>
    <dc:title/>
   </cc:Work>
  </rdf:RDF>
 </metadata>
 <g transform="translate(2.8382e-8 -274.3)" stroke="#5a5a5a">
  <path d="m11.35 274.85a10.8 10.8 0 0 0-10.8 10.8 10.8 10.8 0 0 0 10.8 10.8 10.8 10.8 0 0 0 10.8-10.8 10.8 10.8 0 0 0-10.8-10.8zm0 2.0004a8.8 8.8 0 0 1 8.8 8.8 8.8 8.8 0 0 1-8.8 8.8 8.8 8.8 0 0 1-8.8-8.8 8.8 8.8 0 0 1 8.8-8.8z" fill="#8d8d8d" stroke-width="1.1"/>
  <circle cx="11.35" cy="285.65" r="8.8" fill="#00f" stroke-width=".7"/>
 </g>
</svg>
