<?xml version="1.0" encoding="UTF-8"?>
<!-- Created with Inkscape (http://www.inkscape.org/) -->
<svg width="86.643mm" height="25.159mm" version="1.1" viewBox="0 0 86.643 25.159" xmlns="http://www.w3.org/2000/svg" xmlns:cc="http://creativecommons.org/ns#" xmlns:dc="http://purl.org/dc/elements/1.1/" xmlns:rdf="http://www.w3.org/1999/02/22-rdf-syntax-ns#">
 <metadata>
  <rdf:RDF>
   <cc:Work rdf:about="">
    <dc:format>image/svg+xml</dc:format>
    <dc:type rdf:resource="http://purl.org/dc/dcmitype/StillImage"/>
    <dc:title/>
   </cc:Work>
  </rdf:RDF>
 </metadata>
 <g transform="translate(0 -271.84)" fill="#00f" stroke="#000" stroke-width=".4">
  <path d="m2.1093 296.8h29.766s0.94707-0.36608 1.2284-0.75596c0.32191-0.44606 0.33064-1.0583 0.37799-1.6064 0.13848-1.6032-0.0699-3.2243-0.28349-4.8192-0.16235-1.2123-0.46026-2.4039-0.75595-3.5908-0.41211-1.6541-0.79007-3.3286-1.4174-4.9137-0.5599-1.4146-1.1169-2.8846-2.0789-4.0632-1.2752-1.5626-2.8918-2.9381-4.7247-3.7798-2.0098-0.92292-4.3088-1.1913-6.5201-1.2284-1.6569-0.0278-3.3311 0.26432-4.9137 0.75595-1.9373 0.60183-3.9039 1.3695-5.4807 2.6458-1.5181 1.2288-2.6615 2.9123-3.5908 4.6302-0.91941 1.6997-1.3476 3.6259-1.8899 5.4806-0.52741 1.8038-1.0017 3.629-1.3229 5.4807-0.15163 0.87393-0.3684 1.7629-0.28348 2.6458 0.082 0.8529 0.22345 1.7856 0.75595 2.4568 0.27194 0.34282 1.1339 0.66146 1.1339 0.66146z"/>
  <path d="m84.534 296.8h-29.766s-0.94707-0.36608-1.2284-0.75596c-0.32191-0.44606-0.33064-1.0583-0.37799-1.6064-0.13848-1.6032 0.0699-3.2243 0.28349-4.8192 0.16235-1.2123 0.46026-2.4039 0.75596-3.5908 0.4121-1.6541 0.79006-3.3286 1.4174-4.9137 0.55989-1.4146 1.1169-2.8846 2.0789-4.0632 1.2752-1.5626 2.8919-2.9381 4.7247-3.7798 2.0098-0.92292 4.3088-1.1913 6.5201-1.2284 1.6569-0.0278 3.3312 0.26432 4.9137 0.75595 1.9373 0.60183 3.9039 1.3695 5.4807 2.6458 1.5181 1.2288 2.6615 2.9123 3.5908 4.6302 0.91941 1.6997 1.3476 3.6259 1.8899 5.4806 0.52742 1.8038 1.0016 3.629 1.3229 5.4807 0.15163 0.87393 0.3684 1.7629 0.28348 2.6458-0.082 0.8529-0.22346 1.7856-0.75596 2.4568-0.27194 0.34282-1.1339 0.66146-1.1339 0.66146z"/>
 </g>
</svg>
